<svg width="48" height="91" fill="none" xmlns="http://www.w3.org/2000/svg"><circle cx="24" cy="46" r="22" fill="url(#a)"/><path d="M48 45.802c-5.703-.89-10.778-3.165-14.68-6.578-3.624-3.171-6.288-7.323-7.91-12.064a35.74 35.74 0 001.144-3.95c1.517-6.654 1.21-13.943-.887-21.074L25.037 0l-.68 2.123c-2.79 8.71-2.827 17.496-.41 24.963a30.628 30.628 0 01-3.264 6.463c-.201.3-2.073 3.036-4.665 5.345-5.822 5.186-13.43 6.54-15.937 6.904L0 47.143c4.36.509 10.678 2.12 16.012 6.904 3.549 3.181 6.127 7.306 7.65 11.96-2.274 6.823-2.47 14.736-.335 22.759L23.922 91l.717-2.2c2.554-7.845 2.619-15.845.46-22.78 1.68-4.822 4.45-9.051 8.217-12.303C37.26 50.31 42.338 48.036 48 47.136V45.802zM24.98 4.872c1.626 6.925 1.475 13.823-.28 19.916-1.581-6.093-1.54-12.98.28-19.915zm-.922 81.036c-1.25-6.112-1.113-12.09.297-17.455 1.301 5.432 1.243 11.447-.297 17.455zm8.36-33.209c-3.535 3.053-6.232 6.919-8.018 11.31-1.636-4.233-4.146-7.99-7.465-10.966-4.153-3.723-8.855-5.614-12.868-6.56 4.921-1.234 9.32-3.482 12.86-6.589 3.317-2.911 5.936-6.587 7.739-10.82 1.721 4.347 4.327 8.168 7.745 11.16 3.343 2.926 7.5 5.052 12.15 6.241-4.62 1.197-8.776 3.316-12.147 6.228l.004-.004z" fill="#D9C6E2"/><defs><radialGradient id="a" cx="0" cy="0" r="1" gradientUnits="userSpaceOnUse" gradientTransform="matrix(0 22 -22 0 24 46)"><stop stop-color="#8E4DE4"/><stop offset="1" stop-color="#15101C" stop-opacity="0"/></radialGradient></defs></svg>