<svg width="94" height="94" fill="none" xmlns="http://www.w3.org/2000/svg"><circle cx="47" cy="47" r="46.5" fill="#15101C" stroke="#D9C6E2"/><path d="M71 47.298c-5.584-.88-10.553-3.13-14.375-6.505-3.548-3.136-6.156-7.242-7.744-11.931.441-1.26.816-2.563 1.12-3.906 1.485-6.582 1.184-13.791-.87-20.843L48.518 2l-.666 2.1c-2.732 8.615-2.768 17.303-.401 24.688-.83 2.283-1.9 4.43-3.197 6.393-.197.296-2.03 3.002-4.567 5.285-5.702 5.13-13.151 6.469-15.606 6.829l-.08 1.33c4.27.503 10.456 2.096 15.679 6.828 3.474 3.146 5.999 7.226 7.49 11.828-2.227 6.749-2.418 14.574-.328 22.51L47.423 92l.702-2.176c2.501-7.759 2.565-15.67.452-22.53 1.645-4.769 4.357-8.951 8.045-12.167 3.862-3.37 8.834-5.62 14.378-6.509v-1.32zM48.46 6.82c1.591 6.849 1.444 13.67-.275 19.697-1.548-6.026-1.508-12.838.275-19.697zm-.903 80.145c-1.224-6.045-1.09-11.957.29-17.263 1.275 5.372 1.218 11.321-.29 17.263zm8.185-32.844c-3.46 3.02-6.102 6.842-7.85 11.185-1.602-4.186-4.06-7.902-7.31-10.845-4.066-3.682-8.67-5.552-12.6-6.489 4.819-1.22 9.126-3.442 12.593-6.515 3.247-2.88 5.811-6.515 7.577-10.701 1.685 4.299 4.237 8.078 7.584 11.038 3.273 2.892 7.343 4.995 11.897 6.172-4.524 1.183-8.594 3.28-11.894 6.159l.003-.004z" fill="#D9C6E2"/></svg>