<svg xmlns="http://www.w3.org/2000/svg" version="1.1" xmlns:xlink="http://www.w3.org/1999/xlink" width="94" height="94"><svg width="94" height="94" fill="none" xmlns="http://www.w3.org/2000/svg"><circle cx="47" cy="47" r="46.5" fill="#15101C" stroke="#D9C6E2"></circle><path d="M76.995 46.758c-4.063-.454-11.883-2.175-18.621-8.578-9.132-8.67-10.148-20.038-10.172-24.363.005-.3.01-.57.005-.803L46.471 13c-.004.232-.01.503-.004.802.038 6.409-2.318 16.35-10.143 23.943-7.911 7.67-17.305 8.781-20.2 9.008L16 48.513c4.435.323 12.966 1.923 20.324 9.008 9.041 8.71 10.09 19.936 10.157 23.933V82l1.74-.01v-.546c.015-4.088.94-15.6 10.158-24.358C65.12 50.678 72.942 48.962 77 48.508v-1.75h-.005zm-19.813 9.043c-6.104 5.8-8.76 12.734-9.89 18.157-1.188-5.282-3.853-12.005-9.776-17.713-5.24-5.05-11.044-7.452-15.694-8.583 4.564-1.136 10.434-3.543 15.699-8.637 5.898-5.707 8.564-12.444 9.756-17.76 1.135 5.46 3.796 12.4 9.91 18.205 4.997 4.746 10.548 7.047 14.892 8.168-4.344 1.116-9.895 3.417-14.893 8.167l-.004-.004z" fill="#fff"></path></svg><style>@media (prefers-color-scheme: light) { :root { filter: none; } }
@media (prefers-color-scheme: dark) { :root { filter: none; } }
</style></svg>