<svg width="452" height="254" fill="none" xmlns="http://www.w3.org/2000/svg"><path d="M73.667 118.689c-2.306 5.635-5.556 9.991-9.742 13.067-4.185 3.076-10.47 4.614-18.84 4.614-10.51 0-18.117-3.225-22.816-9.671-4.702-6.446-7.048-16.503-7.048-30.17V83.976c0-13.662 2.35-23.72 7.048-30.169 4.699-6.446 12.306-9.67 22.815-9.67 8.372 0 14.652 1.538 18.841 4.61 4.186 3.076 7.436 7.432 9.742 13.067l-3.461 1.667c-1.966-4.95-4.742-8.774-8.332-11.466-3.587-2.689-9.186-4.035-16.79-4.035-4.186 0-7.776.536-10.767 1.6-2.991 1.069-5.685 2.885-8.074 5.444-2.392 2.564-4.189 6.258-5.383 11.083-1.198 4.826-1.794 10.782-1.794 17.873v12.554c0 7.091.596 13.048 1.794 17.87 1.194 4.825 2.99 8.519 5.383 11.082 2.39 2.563 5.083 4.379 8.074 5.444 2.991 1.068 6.578 1.601 10.767 1.601 7.604 0 13.203-1.346 16.79-4.035 3.59-2.689 6.366-6.512 8.332-11.466l3.46 1.666v-.006zM101.432 109.534H99.42v-19.42H79.318v19.42h-2.011V70.69h2.011v17.413H99.42V70.69h2.012v38.844zM171.115 90.044l9.113 19.49h-2.211l-9.38-20.092c.089-.043.479-.234 1.171-.568.691-.334 1.171-.58 1.439-.738.268-.155.715-.436 1.34-.837.626-.403 1.096-.794 1.407-1.17.311-.38.658-.827 1.039-1.34a5.312 5.312 0 00.837-1.74c.179-.648.268-1.349.268-2.11 0-2.81-1.34-4.888-4.02-6.227-2.681-1.34-6.009-2.008-9.983-2.008h-5.361v36.834h-2.012V70.693h7.373c5.271 0 9.258.916 11.961 2.745 2.704 1.833 4.054 4.333 4.054 7.501 0 2.054-.692 3.873-2.078 5.457a14.088 14.088 0 01-4.96 3.652l.003-.004zM190.68 70.69v19.42c0 6.655 1.059 11.331 3.184 14.03 2.121 2.702 5.036 4.051 8.745 4.051 3.709 0 6.621-1.349 8.746-4.051 2.121-2.702 3.183-7.379 3.183-14.03V70.69h2.008v19.42c0 13.395-4.645 20.092-13.937 20.092-9.291 0-13.937-6.697-13.937-20.091V70.69h2.008zM238.855 69.886c5.539 0 9.47 1.227 11.793 3.685l-1.34 1.471c-2.144-2.096-5.539-3.148-10.185-3.148-6.968 0-10.453 2.768-10.453 8.304 0 2.144.847 3.85 2.545 5.124 1.697 1.273 3.769 2.245 6.211 2.916 2.445.672 4.877 1.376 7.303 2.11 2.425.735 4.486 1.915 6.184 3.546 1.697 1.63 2.548 3.76 2.548 6.396 0 3.079-1.274 5.537-3.819 7.366-2.548 1.832-6.23 2.745-11.055 2.745-2.369 0-4.702-.314-7.002-.94-2.299-.625-4.01-1.541-5.125-2.745l1.34-1.475c2.277 2.1 5.784 3.149 10.519 3.149 4.332 0 7.604-.804 9.818-2.411 2.21-1.607 3.315-3.483 3.315-5.626 0-2.143-.85-4.041-2.544-5.424-1.698-1.382-3.772-2.424-6.224-3.122a457.787 457.787 0 01-7.303-2.143c-2.419-.73-4.477-1.879-6.171-3.443-1.698-1.56-2.548-3.618-2.548-6.161 0-3.437 1.148-5.993 3.451-7.67 2.3-1.674 5.215-2.51 8.746-2.51l-.004.006zM131.027 138.304c-.338-2.04-1.833-9.617-8.345-14.003-4.348-2.927-9.153-3.459-12.498-3.459-3.345 0-6.304.215-8.653.641-2.353.427-4.702 1.261-7.048 2.497-2.353 1.241-4.123 3.225-5.32 5.957-1.199 2.735-1.794 6.234-1.794 10.504 0 3.76 1.73 7.091 5.192 9.991 3.46 2.904 7.666 5.381 12.623 7.432 4.954 2.05 9.934 4.144 14.933 6.277 5 2.136 9.229 4.868 12.69 8.199 3.461 3.33 5.192 7.173 5.192 11.529 0 8.539-2.115 14.906-6.343 19.086-4.229 4.184-11.473 6.277-21.727 6.277-8.375 0-14.953-1.686-19.738-5.06-4.788-3.373-8.073-8.602-9.87-15.693l3.59-1.538c1.707 6.919 4.632 11.721 8.779 14.414 4.142 2.688 9.89 4.034 17.239 4.034 8.203 0 14.291-1.58 18.265-4.739 3.974-3.158 5.96-8.754 5.96-16.781 0-3.757-1.731-7.088-5.192-9.991-3.461-2.904-7.69-5.381-12.69-7.432a915.348 915.348 0 01-14.933-6.277c-4.957-2.133-9.162-4.869-12.623-8.199-3.462-3.33-5.192-7.173-5.192-11.529 0-8.282 2.091-14.261 6.28-17.936 4.186-3.671 10.979-5.51 20.38-5.51 4.129 0 10.254.583 15.893 5.123 7.137 5.752 8.345 14.093 8.586 16.183h-3.636v.003zM152.621 140.242h23.391l-14.205 33.53v13.593h-1.814v-13.593l-14.205-33.53h1.936l13.176 30.993 12.392-29.18h-20.671v-1.813zM188.467 173.471h23.331v-30.692l-13.6 13.593-13.6-13.593v32.504l-1.813-.059v-34.982h1.813l13.6 13.593 13.6-13.593h1.813v35.041l-25.144-.059v-1.753zM240.083 162.233l-.907-1.571 3.385-1.935c2.779-1.531 4.169-3.966 4.169-7.309 0-6.244-4.755-9.363-14.265-9.363h-5.562v45.31h-1.813v-47.123h7.375c5.321 0 9.328.976 12.028 2.931 2.701 1.954 4.051 4.703 4.051 8.245 0 4.028-1.691 6.988-5.076 8.88l-3.385 1.935zM278.83 175.283h-1.813v-17.519h-18.133v17.519h-1.813v-35.041h1.813v15.707h18.133v-15.707h1.813v35.041zM313.703 171.599c-2.177 2.861-5.784 4.289-10.82 4.289-5.036 0-8.643-1.428-10.82-4.289-2.177-2.861-3.263-7.471-3.263-13.835 0-6.363 1.089-10.973 3.263-13.834 2.177-2.857 5.781-4.29 10.82-4.29 5.04 0 8.643 1.429 10.82 4.29 2.178 2.861 3.263 7.471 3.263 13.834 0 6.364-1.089 10.977-3.263 13.835zm-5.741-29.514c-1.37-.424-3.064-.635-5.079-.635-2.015 0-3.709.211-5.076.635-1.37.423-2.63 1.207-3.779 2.354-1.148 1.148-2.005 2.821-2.567 5.014-.566 2.196-.847 4.964-.847 8.308 0 3.344.281 6.112.847 8.308.562 2.196 1.419 3.866 2.567 5.014 1.149 1.148 2.409 1.935 3.779 2.355 1.37.423 3.061.635 5.076.635 2.015 0 3.706-.212 5.079-.635 1.37-.424 2.631-1.207 3.779-2.355 1.148-1.148 2.005-2.818 2.568-5.014.562-2.196.847-4.964.847-8.308 0-3.344-.281-6.112-.847-8.308-.566-2.196-1.42-3.866-2.568-5.014-1.148-1.147-2.409-1.934-3.779-2.354zM326.939 175.283v-35.041h1.813l19.705 31.717v-31.717h1.813v35.041h-1.813l-19.705-31.776v31.776h-1.813zM361.755 140.242h1.814v35.041h-1.814v-35.041zM379.28 173.471h19.704l-12.392-29.18-13.176 30.992h-1.936l15.112-35.646 15.112 35.646H379.28v-1.812zM363.734 122.198H151.026v1.323h212.708v-1.323zM149.233 88.688c-2.819-.31-8.246-1.488-12.922-5.87-6.336-5.933-7.041-13.712-7.058-16.672.004-.205.007-.39.004-.55l-1.205-.01c-.003.16-.006.345-.003.55.026 4.385-1.608 11.189-7.038 16.384-5.49 5.249-12.008 6.01-14.017 6.165l-.086 1.204c3.078.222 8.997 1.316 14.103 6.165 6.274 5.959 7.002 13.642 7.048 16.377v.374l1.208-.007v-.373c.01-2.798.652-10.676 7.048-16.669 4.678-4.385 10.105-5.56 12.921-5.87v-1.198h-.003zm-13.749 6.188c-4.235 3.969-6.078 8.715-6.863 12.426-.824-3.615-2.673-8.216-6.783-12.122-3.636-3.456-7.663-5.1-10.89-5.873 3.167-.777 7.24-2.424 10.893-5.91 4.094-3.906 5.943-8.517 6.77-12.155.788 3.738 2.634 8.487 6.876 12.459 3.468 3.248 7.32 4.822 10.334 5.59-3.014.763-6.866 2.338-10.334 5.589l-.003-.004z" fill="#fff"/></svg>