<svg width="33" height="37" fill="none" xmlns="http://www.w3.org/2000/svg"><path d="M32.997 18.102c-2.198-.243-6.428-1.166-10.073-4.6-4.94-4.65-5.49-10.745-5.503-13.064.003-.16.005-.306.003-.43L16.483 0c-.002.124-.005.27-.002.43.02 3.437-1.254 8.768-5.487 12.839-4.28 4.113-9.362 4.709-10.928 4.83L0 19.044c2.4.174 7.014 1.031 10.995 4.83 4.891 4.67 5.459 10.69 5.495 12.834V37l.941-.005v-.293c.008-2.192.508-8.366 5.495-13.062 3.648-3.436 7.879-4.356 10.074-4.6v-.938h-.003zM22.28 22.951c-3.302 3.11-4.74 6.829-5.35 9.737-.643-2.833-2.085-6.438-5.29-9.499-2.834-2.708-5.974-3.996-8.49-4.602 2.47-.61 5.645-1.9 8.493-4.631 3.192-3.061 4.634-6.674 5.279-9.524.614 2.928 2.053 6.65 5.36 9.762 2.704 2.545 5.707 3.779 8.057 4.38-2.35.598-5.353 1.832-8.057 4.38l-.002-.003z" fill="#fff"/></svg>